HIERARCHY
ROOT Hips
{
	OFFSET 0.000000 0.000000 0.000000
	CHANNELS 6 Xposition Yposition Zposition Zrotation Yrotation Xrotation 
	JOINT LHipJoint
	{
		OFFSET 0.000000 0.000000 0.000000
		CHANNELS 3 Zrotation Yrotation Xrotation
		JOINT LeftUpLeg
		{
			OFFSET 1.363060 -1.794630 0.839290
			CHANNELS 3 Zrotation Yrotation Xrotation
			JOINT LeftLeg
			{
				OFFSET 2.448110 -6.726130 0.000000
				CHANNELS 3 Zrotation Yrotation Xrotation
				JOINT LeftFoot
				{
					OFFSET 2.562200 -7.039590 0.000000
					CHANNELS 3 Zrotation Yrotation Xrotation
					JOINT LeftToeBase
					{
						OFFSET 0.157640 -0.433110 2.322550
						CHANNELS 3 Zrotation Yrotation Xrotation
						End Site
						{
							OFFSET 0.000000 0.000000 0.000000
						}
					}
				}
			}
		}
	}
	JOINT RHipJoint
	{
		OFFSET 0.000000 0.000000 0.000000
		CHANNELS 3 Zrotation Yrotation Xrotation
		JOINT RightUpLeg
		{
			OFFSET -1.305520 -1.794630 0.839290
			CHANNELS 3 Zrotation Yrotation Xrotation
			JOINT RightLeg
			{
				OFFSET -2.542530 -6.985550 0.000000
				CHANNELS 3 Zrotation Yrotation Xrotation
				JOINT RightFoot
				{
					OFFSET -2.568260 -7.056230 0.000000
					CHANNELS 3 Zrotation Yrotation Xrotation
					JOINT RightToeBase
					{
						OFFSET -0.164730 -0.452590 2.363150
						CHANNELS 3 Zrotation Yrotation Xrotation
						End Site
						{
							OFFSET 0.000000 0.000000 0.000000
						}
					}
				}
			}
		}
	}
	JOINT LowerBack
	{
		OFFSET 0.000000 0.000000 0.000000
		CHANNELS 3 Zrotation Yrotation Xrotation
		JOINT Spine
		{
			OFFSET 0.028270 2.035590 -0.193380
			CHANNELS 3 Zrotation Yrotation Xrotation
			JOINT Spine1
			{
				OFFSET 0.056720 2.048850 -0.042750
				CHANNELS 3 Zrotation Yrotation Xrotation
				JOINT Neck
				{
					OFFSET 0.000000 0.000000 0.000000
					CHANNELS 3 Zrotation Yrotation Xrotation
					JOINT Neck1
					{
						OFFSET -0.054170 1.746240 0.172020
						CHANNELS 3 Zrotation Yrotation Xrotation
						JOINT Head
						{
							OFFSET 0.104070 1.761360 -0.123970
							CHANNELS 3 Zrotation Yrotation Xrotation
							End Site
							{
								OFFSET 0.000000 0.000000 0.000000
							}
						}
					}
				}
				JOINT LeftShoulder
				{
					OFFSET 0.000000 0.000000 0.000000
					CHANNELS 3 Zrotation Yrotation Xrotation
					JOINT LeftArm
					{
						OFFSET 3.362410 1.200890 -0.311210
						CHANNELS 3 Zrotation Yrotation Xrotation
						JOINT LeftForeArm
						{
							OFFSET 4.983000 -0.000000 -0.000000
							CHANNELS 3 Zrotation Yrotation Xrotation
							JOINT LeftHand
							{
								OFFSET 3.483560 -0.000000 -0.000000
								CHANNELS 3 Zrotation Yrotation Xrotation
								JOINT LeftFingerBase
								{
									OFFSET 0.000000 0.000000 0.000000
									CHANNELS 3 Zrotation Yrotation Xrotation
									JOINT LeftHandIndex1
									{
										OFFSET 0.715260 -0.000000 -0.000000
										CHANNELS 3 Zrotation Yrotation Xrotation
										End Site
										{
											OFFSET 0.000000 0.000000 0.000000
										}
									}
								}
								JOINT LThumb
								{
									OFFSET 0.000000 0.000000 0.000000
									CHANNELS 3 Zrotation Yrotation Xrotation
									End Site
									{
										OFFSET 0.000000 0.000000 0.000000
									}
								}
							}
						}
					}
				}
				JOINT RightShoulder
				{
					OFFSET 0.000000 0.000000 0.000000
					CHANNELS 3 Zrotation Yrotation Xrotation
					JOINT RightArm
					{
						OFFSET -3.136600 1.374050 -0.404650
						CHANNELS 3 Zrotation Yrotation Xrotation
						JOINT RightForeArm
						{
							OFFSET -5.241900 -0.000000 -0.000000
							CHANNELS 3 Zrotation Yrotation Xrotation
							JOINT RightHand
							{
								OFFSET -3.444170 -0.000000 -0.000000
								CHANNELS 3 Zrotation Yrotation Xrotation
								JOINT RightFingerBase
								{
									OFFSET 0.000000 0.000000 0.000000
									CHANNELS 3 Zrotation Yrotation Xrotation
									JOINT RightHandIndex1
									{
										OFFSET -0.622530 -0.000000 -0.000000
										CHANNELS 3 Zrotation Yrotation Xrotation
										End Site
										{
											OFFSET 0.000000 0.000000 0.000000
										}
									}
								}
								JOINT RThumb
								{
									OFFSET 0.000000 0.000000 0.000000
									CHANNELS 3 Zrotation Yrotation Xrotation
									End Site
									{
										OFFSET 0.000000 0.000000 0.000000
									}
								}
							}
						}
					}
				}
			}
		}
	}
}
MOTION
Frames: 8
Frame Time: 0.008333
4.706284 17.370978 0.994715 7.023388 -56.438221 11.198432 -9.928909 0.010182 3.007326 -7.380648 -8.895011 -20.983661 -2.613554 -1.243093 -2.847208 -0.343619 0.185213 10.359833 0.642200 -0.000001 -43.040900 10.454586 -0.667844 -3.019590 2.931030 -18.931865 -10.377658 1.266667 0.989366 -3.360109 -2.606781 -22.107188 2.895656 -7.109500 0.000000 -57.890200 -4.175308 1.475806 2.189767 -0.442032 1.791244 -2.791003 -0.880707 1.793331 -2.044580 -8.622310 -2.950294 -1.837361 -0.749595 -0.146829 1.543807 0.000000 0.000000 0.000000 -3.006932 0.060580 -2.843705 -76.368807 -0.444679 23.337604 -179.927843 -71.039943 179.929211 8.719726 -2.037598 -0.197295 -0.156208 0.536755 0.000000 0.000000 0.000000 0.000000 0.000000 0.000000 0.000000 -16.779824 2.531460 2.511253 -16.530096 37.906569 -82.786704 -2.793218 14.747842 -0.203355 -26.579735 1.596354 -0.507686 0.711441 -0.497342 -0.000000 0.000000 0.000000 0.000000 0.000000 0.000000 0.000000 
4.709692 17.371052 0.997793 6.970061 -56.419058 11.381251 -9.927542 -0.000744 2.985411 -7.381760 -8.833958 -21.170307 -2.618615 -1.239620 -2.804165 -0.351555 0.059006 10.364355 0.601301 0.000000 -43.134600 10.443264 -0.646663 -3.003389 2.992446 -18.756866 -10.531306 1.253516 0.991788 -3.272899 -2.594805 -22.294257 2.812337 -7.197201 0.000000 -57.770700 -4.220743 1.414313 2.233879 -0.460105 1.732923 -2.802951 -0.949165 1.735927 -2.111796 -8.338271 -2.736301 -1.682359 -0.793262 -0.151849 1.582538 0.000000 0.000000 0.000000 -3.027043 0.063327 -2.802397 -76.830972 0.586388 22.495261 -179.929682 -70.852632 179.928705 8.778549 -2.096364 -0.203229 -0.155238 0.538201 0.000000 0.000000 0.000000 0.000000 0.000000 0.000000 0.000000 -16.491970 2.749031 2.388060 -15.761112 37.680313 -78.841260 -2.480122 16.863829 -0.178351 -22.387681 1.146249 -0.334210 0.596098 -0.496816 -0.000000 0.000000 0.000000 0.000000 0.000000 0.000000 0.000000 
4.714161 17.370951 1.000498 6.909954 -56.446447 11.554598 -9.925880 -0.011441 2.957941 -7.376865 -8.763908 -21.335962 -2.620489 -1.235865 -2.759620 -0.356539 -0.028977 10.354141 0.572600 -0.000000 -43.218800 10.433007 -0.626656 -2.987175 3.049313 -18.568495 -10.664302 1.241465 0.995531 -3.211266 -2.589430 -22.450461 2.749795 -7.269200 0.000001 -57.662900 -4.288526 1.351303 2.289661 -0.480178 1.674883 -2.811510 -1.002393 1.678376 -2.178147 -8.013499 -2.522582 -1.510682 -0.839744 -0.157212 1.625000 0.000000 0.000000 0.000000 -3.052261 0.098959 -2.746058 -77.296630 1.539186 21.679673 -179.931590 -70.712055 179.928041 8.858253 -2.146159 -0.209065 -0.154787 0.539320 0.000000 0.000000 0.000000 0.000000 0.000000 0.000000 0.000000 -16.124431 2.929197 2.235679 -15.022558 37.510474 -75.026957 -2.211726 19.196413 -0.154958 -18.792842 1.535804 -0.349188 0.485332 -0.517748 -0.000000 0.000000 0.000000 0.000000 0.000000 0.000000 0.000000 
4.719820 17.370698 1.002660 6.841030 -56.512276 11.720535 -9.924056 -0.022464 2.926002 -7.364643 -8.686776 -21.477633 -2.619833 -1.232711 -2.725937 -0.358865 -0.083398 10.339401 0.554400 0.000000 -43.288500 10.424032 -0.608467 -2.973096 3.104487 -18.381743 -10.780266 1.232308 1.000383 -3.176234 -2.589621 -22.567535 2.711117 -7.322800 0.000000 -57.573200 -4.377370 1.290220 2.357399 -0.502774 1.620352 -2.817120 -1.042869 1.624040 -2.245349 -7.651872 -2.326950 -1.326605 -0.890697 -0.162967 1.670251 0.000000 0.000000 0.000000 -3.075158 0.154151 -2.676845 -77.762140 2.406532 20.905015 -179.934558 -70.625593 179.927155 8.967147 -2.185929 -0.214802 -0.155049 0.540068 0.000000 0.000000 0.000000 0.000000 0.000000 0.000000 0.000000 -15.668027 3.059778 2.053541 -14.303364 37.390473 -71.335564 -1.992351 21.766516 -0.135907 -15.974204 2.502324 -0.439631 0.389903 -0.551773 -0.000000 0.000000 0.000000 0.000000 0.000000 0.000000 0.000000 
4.726537 17.370340 1.004223 6.763992 -56.610394 11.880337 -9.922226 -0.034573 2.890778 -7.342870 -8.609396 -21.596021 -2.616363 -1.230333 -2.704074 -0.358600 -0.100515 10.322433 0.548400 0.000000 -43.341600 10.416155 -0.592469 -2.963116 3.159332 -18.207004 -10.881629 1.227331 1.005970 -3.167324 -2.594581 -22.638574 2.697626 -7.356100 -0.000000 -57.505300 -4.483958 1.234530 2.437223 -0.527771 1.572473 -2.820001 -1.072603 1.576208 -2.314071 -7.263230 -2.162260 -1.135668 -0.946043 -0.169032 1.717000 0.000000 0.000000 0.000000 -3.092773 0.221861 -2.596733 -78.220422 3.179727 20.185349 -179.938760 -70.598813 179.926011 9.111002 -2.214028 -0.220540 -0.156248 0.540390 0.000000 0.000000 0.000000 0.000000 0.000000 0.000000 0.000000 -15.130775 3.136389 1.842121 -13.569164 37.310993 -67.776402 -1.820933 24.590143 -0.122762 -13.990088 3.769619 -0.547857 0.315042 -0.590113 -0.000000 0.000000 0.000000 0.000000 0.000000 0.000000 0.000000 
4.734174 17.369988 1.005201 6.680973 -56.736867 12.035361 -9.920885 -0.048476 2.852997 -7.310209 -8.536865 -21.693854 -2.609789 -1.228686 -2.692653 -0.355811 -0.077744 10.304058 0.555400 0.000000 -43.377900 10.408715 -0.578694 -2.958791 3.215393 -18.050834 -10.972047 1.227334 1.011930 -3.182333 -2.602873 -22.660834 2.709191 -7.368899 0.000000 -57.460500 -4.602100 1.186636 2.528976 -0.553876 1.533230 -2.820144 -1.091908 1.536979 -2.383798 -6.865964 -2.038309 -0.944382 -1.002813 -0.175128 1.763691 0.000000 0.000000 0.000000 -3.109023 0.300402 -2.507684 -78.660562 3.850921 19.534730 -179.943899 -70.633387 179.924586 9.294275 -2.228415 -0.226078 -0.158632 0.540228 0.000000 0.000000 0.000000 0.000000 0.000000 0.000000 0.000000 -14.546770 3.159204 1.603069 -12.766804 37.273469 -64.408928 -1.690292 27.660458 -0.115073 -12.701541 5.173156 -0.659974 0.258304 -0.627455 -0.000000 0.000000 0.000000 0.000000 0.000000 0.000000 0.000000 
4.742611 17.369672 1.005615 6.591639 -56.886171 12.188302 -9.920416 -0.064310 2.813575 -7.266929 -8.470202 -21.773807 -2.600465 -1.227966 -2.694419 -0.350851 -0.019503 10.288270 0.574000 -0.000000 -43.397100 10.401284 -0.567153 -2.960646 3.274449 -17.918486 -11.056522 1.232939 1.018094 -3.218076 -2.612788 -22.633636 2.744473 -7.362200 0.000000 -57.437700 -4.726679 1.147320 2.630850 -0.580618 1.503052 -2.818481 -1.103912 1.506866 -2.456495 -6.470143 -1.947217 -0.755400 -1.060401 -0.181182 1.809750 0.000000 0.000000 0.000000 -3.121839 0.382279 -2.411623 -79.072790 4.423845 18.961817 -179.950185 -70.724838 179.922871 9.518608 -2.229180 -0.231615 -0.162257 0.539594 0.000000 0.000000 0.000000 0.000000 0.000000 0.000000 0.000000 -13.933191 3.142345 1.342246 -11.862636 37.262365 -61.254252 -1.590552 30.954762 -0.112172 -11.989821 6.560625 -0.773689 0.216854 -0.659759 -0.000000 0.000000 0.000000 0.000000 0.000000 0.000000 0.000000 
4.751650 17.369484 1.005531 6.495867 -57.053065 12.341219 -9.920995 -0.081906 2.773410 -7.213851 -8.408364 -21.839301 -2.588920 -1.228285 -2.710595 -0.344019 0.067953 10.278241 0.602200 0.000000 -43.399600 10.393670 -0.557891 -2.968355 3.338173 -17.812442 -11.139789 1.244278 1.024247 -3.269896 -2.622417 -22.559637 2.801010 -7.338400 0.000001 -57.436300 -4.854109 1.116561 2.740136 -0.608544 1.481584 -2.816102 -1.114880 1.485633 -2.533849 -6.077033 -1.874516 -0.569934 -1.120597 -0.187297 1.854903 0.000000 0.000000 0.000000 -3.124026 0.457716 -2.310927 -79.450161 4.907570 18.471690 -179.957910 -70.862821 179.920878 9.782175 -2.218539 -0.237051 -0.167050 0.538571 0.000000 0.000000 0.000000 0.000000 0.000000 0.000000 0.000000 -13.289121 3.104615 1.069837 -10.848915 37.255630 -58.307048 -1.511450 34.437500 -0.113374 -11.777848 7.722388 -0.883311 0.188952 -0.683003 -0.000000 0.000000 0.000000 0.000000 0.000000 0.000000 0.000000 
